<svg xmlns="http://www.w3.org/2000/svg">
<polygon points="100,100 200,100 200,200 100,200 100,100" style="fill:rgb(100,255,100);stroke:rgb(0,0,0);stroke-width:2"/>
<text x="140" y="165" font-family="Verdana" font-size="40" fill="black">
3</text>
<polygon points="200,100 300,100 300,200 200,200 200,100" style="fill:rgb(100,255,100);stroke:rgb(0,0,0);stroke-width:2"/>
<text x="240" y="165" font-family="Verdana" font-size="40" fill="black">
6</text>
<polygon points="300,100 400,100 400,200 300,200 300,100" style="fill:rgb(100,255,100);stroke:rgb(0,0,0);stroke-width:2"/>
<text x="340" y="165" font-family="Verdana" font-size="40" fill="black">
3</text>
<polygon points="400,100 500,100 500,200 400,200 400,100" style="fill:rgb(255,150,255);stroke:rgb(0,0,0);stroke-width:2"/>
<text x="440" y="165" font-family="Verdana" font-size="40" fill="black">
2</text>
<polygon points="100,200 200,200 200,300 100,300 100,200" style="fill:rgb(0,255,255);stroke:rgb(0,0,0);stroke-width:2"/>
<text x="140" y="265" font-family="Verdana" font-size="40" fill="black">
1</text>
<polygon points="200,200 300,200 300,300 200,300 200,200" style="fill:rgb(100,255,100);stroke:rgb(0,0,0);stroke-width:2"/>
<text x="240" y="265" font-family="Verdana" font-size="40" fill="black">
12</text>
<polygon points="300,200 400,200 400,300 300,300 300,200" style="fill:rgb(255,150,255);stroke:rgb(0,0,0);stroke-width:2"/>
<text x="340" y="265" font-family="Verdana" font-size="40" fill="black">
2</text>
<polygon points="400,200 500,200 500,300 400,300 400,200" style="fill:rgb(100,255,100);stroke:rgb(0,0,0);stroke-width:2"/>
<text x="440" y="265" font-family="Verdana" font-size="40" fill="black">
6</text>
<polygon points="100,300 200,300 200,400 100,400 100,300" style="fill:rgb(100,255,100);stroke:rgb(0,0,0);stroke-width:2"/>
<text x="140" y="365" font-family="Verdana" font-size="40" fill="black">
3</text>
<polygon points="200,300 300,300 300,400 200,400 200,300" style="fill:rgb(100,255,100);stroke:rgb(0,0,0);stroke-width:2"/>
<text x="240" y="365" font-family="Verdana" font-size="40" fill="black">
12</text>
<polygon points="300,300 400,300 400,400 300,400 300,300" style="fill:rgb(100,255,100);stroke:rgb(0,0,0);stroke-width:2"/>
<text x="340" y="365" font-family="Verdana" font-size="40" fill="black">
3</text>
<polygon points="400,300 500,300 500,400 400,400 400,300" style="fill:rgb(0,255,255);stroke:rgb(0,0,0);stroke-width:2"/>
<text x="440" y="365" font-family="Verdana" font-size="40" fill="black">
1</text>
<polygon points="100,400 200,400 200,500 100,500 100,400" style="fill:rgb(0,255,255);stroke:rgb(0,0,0);stroke-width:2"/>
<text x="140" y="465" font-family="Verdana" font-size="40" fill="black">
1</text>
<polygon points="200,400 300,400 300,500 200,500 200,400" style="fill:rgb(100,255,100);stroke:rgb(0,0,0);stroke-width:2"/>
<text x="240" y="465" font-family="Verdana" font-size="40" fill="black">
24</text>
<polygon points="300,400 400,400 400,500 300,500 300,400" style="fill:rgb(100,255,100);stroke:rgb(0,0,0);stroke-width:2"/>
<text x="340" y="465" font-family="Verdana" font-size="40" fill="black">
3</text>
<polygon points="400,400 500,400 500,500 400,500 400,400" style="fill:rgb(230,230,230);stroke:rgb(0,0,0);stroke-width:2"/>
<text x="440" y="465" font-family="Verdana" font-size="40" fill="black">
0</text>
</svg>
